<svg width="81" height="81" viewBox="0 0 81 81" fill="none" xmlns="http://www.w3.org/2000/svg">
<path d="M68.3438 37.9688H17.8466L37.1828 19.5514C38.1953 18.587 38.2345 16.9847 37.2701 15.9722C36.307 14.961 34.7047 14.9205 33.6909 15.8849L11.6083 36.9196C10.6528 37.8764 10.125 39.1471 10.125 40.5C10.125 41.8517 10.6528 43.1236 11.6526 44.1222L33.6922 65.1139C34.182 65.5809 34.8098 65.8125 35.4375 65.8125C36.1057 65.8125 36.774 65.5493 37.2714 65.0266C38.2358 64.0141 38.1966 62.413 37.1841 61.4486L17.7668 43.0313H68.3438C69.741 43.0313 70.875 41.8973 70.875 40.5C70.875 39.1028 69.741 37.9688 68.3438 37.9688V37.9688Z" fill="#232423"/>
</svg>
